PathFileType	4	(X/Y/Z)	15_1_23_p0_0-371_filt_butterworth.trc
DataRate	CameraRate	NumFrames	NumMarkers	Units	OrigDataRate	OrigDataStartFrame	OrigNumFrames
56.0	56.0	5	27	m	56.0	231	371
Frame#	Time	RHip			RKnee			RAnkle			RBigToe			RSmallToe			RHeel			LHip			LKnee			LAnkle			LBigToe			LSmallToe			LHeel			Neck			Head			Nose			RShoulder			RElbow			RWrist			RThumb			RIndex			RPinky			LShoulder			LElbow			LWrist			LThumb			LIndex			LPinky			
		X1	Y1	Z1	X2	Y2	Z2	X3	Y3	Z3	X4	Y4	Z4	X5	Y5	Z5	X6	Y6	Z6	X7	Y7	Z7	X8	Y8	Z8	X9	Y9	Z9	X10	Y10	Z10	X11	Y11	Z11	X12	Y12	Z12	X13	Y13	Z13	X14	Y14	Z14	X15	Y15	Z15	X16	Y16	Z16	X17	Y17	Z17	X18	Y18	Z18	X19	Y19	Z19	X20	Y20	Z20	X21	Y21	Z21	X22	Y22	Z22	X23	Y23	Z23	X24	Y24	Z24	X25	Y25	Z25	X26	Y26	Z26	X27	Y27	Z27	
231	4.125	0.2581021982855108	0.3142016328220094	1.082287184371693	0.26323190932470775	0.268639340230165	1.5229545689262727	0.2813476536972573	0.23066837506226676	1.9189469092540634	0.24303557960645833	0.03684175592905374	1.9031649073122265	0.3081205353929981	0.05856142421346781	1.9090717027355966	0.25496642442919265	0.2776650340435701	1.9755663998438269	0.026095697448964273	0.35961111787689154	1.1234692259322236	0.035055323462262304	0.2695509207746426	1.5230202615201702	0.06350091453578155	0.2380627276412834	1.90037241674611	0.07842783426931357	0.05625793562232549	1.918834990576587	0.028810111569575903	0.09403995602878555	1.9352075648894753	0.09057227002812153	0.2895567248992252	1.9640438111370306	0.0955250464257698	0.45932424387432125	0.5623979897644757	0.05543852452139669	0.3950808031694407	0.2979874375624835	0.0601869763384662	0.33865414344887823	0.4356942108717222	0.24327713977226184	0.3982508302990379	0.5834912318530026	0.3094602056177819	0.28818086504622603	0.7893264040589342	0.1921129413164568	0.177023302675932	0.9818330256745783	0.1017460447460989	0.16146951085080918	1.0362614332325142	0.0966222911454396	0.16632991828764776	1.0574526346868693	0.1080986884042561	0.18185241687162662	1.0803659941471133	-0.04600272986105904	0.42948945926906057	0.5941043961008238	-0.06606366011098902	0.33345271431932805	0.826535112717872	0.044516196603294915	0.21832537569874483	0.9856055607198871	0.11384921500440855	0.16060505260082367	1.0158868922284294	0.11953144807500213	0.15786279339613266	1.0615925371339705	0.11378724749430284	0.17957343505331402	1.0763299974143508
232	4.142857142857143	0.25842267218156617	0.3134955282615633	1.0850634170967484	0.2632681338989682	0.26856453343899794	1.523040009438758	0.28104848710237873	0.23065980364193467	1.920160808962666	0.2428162182581976	0.036610973223198374	1.9053506538505207	0.30896187029532207	0.05670160549461499	1.9070849327285586	0.25514744340150125	0.28371669826665746	1.98204123030983	0.024984499660788723	0.35931210318673096	1.123576886715188	0.03528117932498734	0.26975558693846985	1.5218769247101762	0.06324976489276282	0.2376868677332285	1.9011186729866074	0.07886745602567012	0.05267011984431935	1.9163705059675331	0.028415551998438347	0.09463277351515795	1.9352378032808693	0.09020063023536212	0.2900069465431294	1.9664702665691256	0.09523447100283258	0.4601803648453138	0.564312994882832	0.05315317335132695	0.39457933469771894	0.29836781850415417	0.058171907893846936	0.3411143075227784	0.43677636861589136	0.2432835490972489	0.39821578664188106	0.5834655970584768	0.309414790065037	0.28721283222582683	0.789402621850707	0.19217096826512467	0.1770836255511575	0.9818567462370476	0.10308672025436191	0.16524208019982878	1.0384865673771104	0.09940463171928454	0.17030996703536197	1.0591664306912951	0.1080668440301116	0.18181759955530385	1.0802832929490633	-0.04710242345924373	0.42585024294649954	0.5929970664798491	-0.06603869088034277	0.33348059848773715	0.8265808183507304	0.04802598112397388	0.2184867222135273	0.9855320923534544	0.1138093163821334	0.1607502846459056	1.0163344182404854	0.11953253813478057	0.15808901119599833	1.061646762218499	0.1151624170102228	0.182413766589679	1.0774380207155365
233	4.160714285714286	0.25853335002304073	0.31271884183926246	1.087021674451264	0.26330057990388733	0.26847552609192493	1.5230994943937377	0.2809302567133637	0.23075284759009063	1.9218556912434446	0.24247662014824056	0.036277348663257804	1.9059479003194764	0.3105150228150742	0.053117470934721765	1.9030497695737485	0.2556582337236976	0.28858372834226975	1.9887142056602143	0.02346237160412617	0.35889056003833525	1.1235049044497853	0.03553282791060352	0.27008025869118024	1.5203435751843901	0.063165317967038	0.23755907940979265	1.9020475323883346	0.0793224176699665	0.04774107395803817	1.9130801342231294	0.028167674537567005	0.09512650748205204	1.9352428856229713	0.08985963005672967	0.2905231685070958	1.9678943748535416	0.0941307505964743	0.46339160168662624	0.5651118564093089	0.05194502790118615	0.3940392237674559	0.298513383743657	0.05643766460692576	0.34459706466105233	0.4377190861993106	0.24328410918601578	0.3982231847335126	0.5834400339576574	0.30941742112471116	0.28659778915053635	0.7895004773558861	0.19222947543380017	0.1770937310376729	0.9818544579657718	0.10415881759216696	0.16807561429301193	1.0402170532214174	0.10153272366763866	0.17316097272368053	1.0609549214592096	0.10802771474116385	0.18175862734891624	1.0801601533568896	-0.0479440169826198	0.4231392105886869	0.5922005323756476	-0.06600485230341152	0.3335123509187818	0.8266325411558421	0.0508832437808482	0.21854442573942195	0.9853860988842402	0.11370690427120457	0.16076429726558067	1.0164050336930444	0.11958095007409177	0.15839305306966558	1.061689776291705	0.11550733485495149	0.18336005808484923	1.0778167700736658
234	4.178571428571429	0.2583715505006027	0.3122787038285366	1.0871054951951007	0.2633168003145623	0.2684301161624117	1.5231334584515457	0.28098995830231716	0.23089021985373345	1.9232456435907925	0.2421324704479602	0.035725303011749476	1.905271684357204	0.3125812175578695	0.050308432390047626	1.8998496134810352	0.25641189085409244	0.2912005750005139	1.992336415717869	0.022355297312874563	0.3585590348061297	1.1234042933041637	0.03569540261603947	0.270334936611562	1.5192335997232886	0.06331407056959319	0.23757691023042207	1.903488181525787	0.07995364822850372	0.04428495406476968	1.9115529899785217	0.02808176504947834	0.09525119598754712	1.9352286461801356	0.08987585404562079	0.2910330573161253	1.9682131108374765	0.09228737683167028	0.4677086583125455	0.5652440370563803	0.05169295505504516	0.3937960076218867	0.2983953452537353	0.05540225093199861	0.34721362992299326	0.4383772889565153	0.24328464917836545	0.39820293722577355	0.5834277562364114	0.3094278879573611	0.2883245667814422	0.7894120565892448	0.19227454518539885	0.17705038433649414	0.9818269083415904	0.1045996995086296	0.16907447929174022	1.0407315762619127	0.10233470819490553	0.1741345843770357	1.0622367199135554	0.10797282223266205	0.18164770039164296	1.0800097152038106	-0.048273921204824176	0.42217431805243577	0.5919148593059195	-0.06597901683523694	0.33354821980288696	0.8266357804837395	0.052354172640190766	0.21853743439873005	0.985257054905396	0.11351457999217429	0.1605695805442685	1.0163821535290916	0.11969105469526485	0.15857224133211223	1.0617154334414503	0.11540837665465882	0.18319421482836756	1.0777561553348938
235	4.196428571428571	0.2581468080335595	0.31222067229009803	1.0862920000373402	0.26331907290864187	0.26844253881838087	1.5231808335957044	0.2811878025962845	0.2310203635565127	1.923849912884529	0.2419216821832638	0.035202588097217304	1.905101105498936	0.31455410329630096	0.04952463632418374	1.8990003464091285	0.25664701974257964	0.29285676083852696	1.9933138061497049	0.021987741127022856	0.3584280763785288	1.1234410975191649	0.03570033094377281	0.2704428273200065	1.5188827628161046	0.06365051905675558	0.23764434065487117	1.905216482425868	0.08105296998926859	0.043076603728907606	1.9129680091055434	0.02806925883900892	0.09512963635428535	1.9352315175520554	0.09078290345552634	0.29110657202923945	1.9676712638336973	0.09015044479954676	0.47063092678614915	0.5651903888955215	0.05176831805563027	0.39390869145336027	0.29800239814514395	0.055021588522233246	0.3481879779970574	0.4386158269010094	0.2432726223077551	0.39813313903106373	0.5834167328367404	0.30942729391819207	0.2908757872849257	0.7893445061062271	0.19230256806657178	0.17699462743488517	0.9817829806888294	0.10457441151047109	0.16901763973327866	1.0401323008781527	0.1023095451179387	0.17408479820316336	1.0629026043347998	0.10787674188604947	0.1814756016448874	1.0798525467057736	-0.04830409327642165	0.4222312272112628	0.5918560795103391	-0.06594786400439706	0.33360058022955036	0.8265524250751428	0.05264856451358793	0.21852521360998406	0.9851474194476099	0.11336597197831327	0.16047935830566518	1.0161647359747814	0.11978640517443367	0.1586143428388269	1.061731989594086	0.11530526404370714	0.18276887825540108	1.077628656670415
